<svg width="15" height="15" viewBox="0 0 15 15" fill="none" xmlns="http://www.w3.org/2000/svg">
<path d="M11.1016 9.04997C11.4698 9.04997 11.7682 8.75149 11.7682 8.3833C11.7682 8.01511 11.4698 7.71663 11.1016 7.71663C10.7334 7.71663 10.4349 8.01511 10.4349 8.3833C10.4349 8.75149 10.7334 9.04997 11.1016 9.04997Z" fill="#008842"/>
<path d="M11.1016 11.7166C11.4698 11.7166 11.7682 11.4182 11.7682 11.05C11.7682 10.6818 11.4698 10.3833 11.1016 10.3833C10.7334 10.3833 10.4349 10.6818 10.4349 11.05C10.4349 11.4182 10.7334 11.7166 11.1016 11.7166Z" fill="#008842"/>
<path d="M8.4349 8.3833C8.4349 8.75149 8.13642 9.04997 7.76823 9.04997C7.40004 9.04997 7.10156 8.75149 7.10156 8.3833C7.10156 8.01511 7.40004 7.71663 7.76823 7.71663C8.13642 7.71663 8.4349 8.01511 8.4349 8.3833Z" fill="#008842"/>
<path d="M8.4349 11.05C8.4349 11.4182 8.13642 11.7166 7.76823 11.7166C7.40004 11.7166 7.10156 11.4182 7.10156 11.05C7.10156 10.6818 7.40004 10.3833 7.76823 10.3833C8.13642 10.3833 8.4349 10.6818 8.4349 11.05Z" fill="#008842"/>
<path d="M4.4349 9.04997C4.80309 9.04997 5.10156 8.75149 5.10156 8.3833C5.10156 8.01511 4.80309 7.71663 4.4349 7.71663C4.06671 7.71663 3.76823 8.01511 3.76823 8.3833C3.76823 8.75149 4.06671 9.04997 4.4349 9.04997Z" fill="#008842"/>
<path d="M4.4349 11.7166C4.80309 11.7166 5.10156 11.4182 5.10156 11.05C5.10156 10.6818 4.80309 10.3833 4.4349 10.3833C4.06671 10.3833 3.76823 10.6818 3.76823 11.05C3.76823 11.4182 4.06671 11.7166 4.4349 11.7166Z" fill="#008842"/>
<path fill-rule="evenodd" clip-rule="evenodd" d="M4.4349 0.883301C4.71104 0.883301 4.9349 1.10716 4.9349 1.3833V1.89178C5.37623 1.88329 5.86245 1.8833 6.3972 1.8833H9.13917C9.67394 1.8833 10.1602 1.88329 10.6016 1.89178V1.3833C10.6016 1.10716 10.8254 0.883301 11.1016 0.883301C11.3777 0.883301 11.6016 1.10716 11.6016 1.3833V1.93469C11.7749 1.9479 11.939 1.96451 12.0942 1.98539C12.8759 2.09048 13.5085 2.31189 14.0074 2.8108C14.5063 3.30971 14.7277 3.94234 14.8328 4.72395C14.9349 5.48342 14.9349 6.45384 14.9349 7.679V9.08758C14.9349 10.3127 14.9349 11.2832 14.8328 12.0426C14.7277 12.8243 14.5063 13.4569 14.0074 13.9558C13.5085 14.4547 12.8759 14.6761 12.0942 14.7812C11.3348 14.8833 10.3644 14.8833 9.1392 14.8833H6.39729C5.17213 14.8833 4.20168 14.8833 3.44221 14.7812C2.6606 14.6761 2.02797 14.4547 1.52906 13.9558C1.03015 13.4569 0.808738 12.8243 0.703653 12.0426C0.601544 11.2832 0.601552 10.3128 0.601563 9.08758V7.67902C0.601552 6.45385 0.601544 5.48343 0.703653 4.72395C0.808738 3.94234 1.03015 3.30971 1.52906 2.8108C2.02797 2.31189 2.6606 2.09048 3.44221 1.98539C3.5975 1.96451 3.7616 1.9479 3.9349 1.93469V1.3833C3.9349 1.10716 4.15875 0.883301 4.4349 0.883301ZM3.57546 2.97647C2.90474 3.06665 2.5183 3.23576 2.23616 3.5179C1.95403 3.80004 1.78491 4.18647 1.69474 4.8572C1.67946 4.97079 1.66669 5.09037 1.65602 5.21663H13.8804C13.8698 5.09037 13.857 4.97079 13.8417 4.8572C13.7515 4.18647 13.5824 3.80004 13.3003 3.5179C13.0182 3.23576 12.6317 3.06665 11.961 2.97647C11.2759 2.88436 10.3728 2.8833 9.10156 2.8833H6.4349C5.16368 2.8833 4.26057 2.88436 3.57546 2.97647ZM1.60156 7.71663C1.60156 7.14729 1.60178 6.65179 1.61029 6.21663H13.9262C13.9347 6.65179 13.9349 7.14729 13.9349 7.71663V9.04997C13.9349 10.3212 13.9338 11.2243 13.8417 11.9094C13.7515 12.5801 13.5824 12.9666 13.3003 13.2487C13.0182 13.5308 12.6317 13.7 11.961 13.7901C11.2759 13.8822 10.3728 13.8833 9.10156 13.8833H6.4349C5.16368 13.8833 4.26057 13.8822 3.57546 13.7901C2.90474 13.7 2.5183 13.5308 2.23616 13.2487C1.95403 12.9666 1.78491 12.5801 1.69474 11.9094C1.60262 11.2243 1.60156 10.3212 1.60156 9.04997V7.71663Z" fill="#008842"/>
</svg>
