<svg width="16" height="15" viewBox="0 0 16 15" fill="none" xmlns="http://www.w3.org/2000/svg">
<path d="M11.3333 8.33329C11.7015 8.33329 12 8.03482 12 7.66663C12 7.29844 11.7015 6.99996 11.3333 6.99996C10.9651 6.99996 10.6667 7.29844 10.6667 7.66663C10.6667 8.03482 10.9651 8.33329 11.3333 8.33329Z" fill="#A7A7A7"/>
<path d="M11.3333 11C11.7015 11 12 10.7015 12 10.3333C12 9.9651 11.7015 9.66663 11.3333 9.66663C10.9651 9.66663 10.6667 9.9651 10.6667 10.3333C10.6667 10.7015 10.9651 11 11.3333 11Z" fill="#A7A7A7"/>
<path d="M8.66667 7.66663C8.66667 8.03482 8.36819 8.33329 8 8.33329C7.63181 8.33329 7.33333 8.03482 7.33333 7.66663C7.33333 7.29844 7.63181 6.99996 8 6.99996C8.36819 6.99996 8.66667 7.29844 8.66667 7.66663Z" fill="#A7A7A7"/>
<path d="M8.66667 10.3333C8.66667 10.7015 8.36819 11 8 11C7.63181 11 7.33333 10.7015 7.33333 10.3333C7.33333 9.9651 7.63181 9.66663 8 9.66663C8.36819 9.66663 8.66667 9.9651 8.66667 10.3333Z" fill="#A7A7A7"/>
<path d="M4.66667 8.33329C5.03486 8.33329 5.33333 8.03482 5.33333 7.66663C5.33333 7.29844 5.03486 6.99996 4.66667 6.99996C4.29848 6.99996 4 7.29844 4 7.66663C4 8.03482 4.29848 8.33329 4.66667 8.33329Z" fill="#A7A7A7"/>
<path d="M4.66667 11C5.03486 11 5.33333 10.7015 5.33333 10.3333C5.33333 9.9651 5.03486 9.66663 4.66667 9.66663C4.29848 9.66663 4 9.9651 4 10.3333C4 10.7015 4.29848 11 4.66667 11Z" fill="#A7A7A7"/>
<path fill-rule="evenodd" clip-rule="evenodd" d="M4.66667 0.166626C4.94281 0.166626 5.16667 0.390484 5.16667 0.666626V1.17511C5.608 1.16662 6.09422 1.16662 6.62897 1.16663H9.37094C9.90571 1.16662 10.392 1.16662 10.8333 1.17511V0.666626C10.8333 0.390484 11.0572 0.166626 11.3333 0.166626C11.6095 0.166626 11.8333 0.390484 11.8333 0.666626V1.21802C12.0066 1.23123 12.1707 1.24784 12.326 1.26872C13.1076 1.3738 13.7403 1.59521 14.2392 2.09412C14.7381 2.59303 14.9595 3.22566 15.0646 4.00728C15.1667 4.76675 15.1667 5.73716 15.1667 6.96232V8.3709C15.1667 9.59606 15.1667 10.5665 15.0646 11.326C14.9595 12.1076 14.7381 12.7402 14.2392 13.2391C13.7403 13.738 13.1076 13.9595 12.326 14.0645C11.5665 14.1666 10.5961 14.1666 9.37097 14.1666H6.62906C5.4039 14.1666 4.43345 14.1666 3.67398 14.0645C2.89237 13.9595 2.25974 13.738 1.76083 13.2391C1.26192 12.7402 1.04051 12.1076 0.935422 11.326C0.833314 10.5665 0.833322 9.59608 0.833332 8.3709V6.96235C0.833322 5.73717 0.833314 4.76675 0.935422 4.00728C1.04051 3.22566 1.26192 2.59303 1.76083 2.09412C2.25974 1.59521 2.89237 1.3738 3.67398 1.26872C3.82927 1.24784 3.99337 1.23123 4.16667 1.21802V0.666626C4.16667 0.390484 4.39052 0.166626 4.66667 0.166626ZM3.80723 2.2598C3.13651 2.34998 2.75007 2.51909 2.46793 2.80123C2.18579 3.08337 2.01668 3.4698 1.9265 4.14052C1.91123 4.25412 1.89846 4.3737 1.88779 4.49996H14.1122C14.1015 4.3737 14.0888 4.25412 14.0735 4.14053C13.9833 3.4698 13.8142 3.08337 13.5321 2.80123C13.2499 2.51909 12.8635 2.34998 12.1928 2.2598C11.5077 2.16769 10.6045 2.16663 9.33333 2.16663H6.66667C5.39545 2.16663 4.49234 2.16769 3.80723 2.2598ZM1.83333 6.99996C1.83333 6.43062 1.83355 5.93511 1.84206 5.49996H14.1579C14.1665 5.93511 14.1667 6.43062 14.1667 6.99996V8.33329C14.1667 9.60451 14.1656 10.5076 14.0735 11.1927C13.9833 11.8635 13.8142 12.2499 13.5321 12.532C13.2499 12.8142 12.8635 12.9833 12.1928 13.0735C11.5077 13.1656 10.6045 13.1666 9.33333 13.1666H6.66667C5.39545 13.1666 4.49234 13.1656 3.80723 13.0735C3.13651 12.9833 2.75007 12.8142 2.46793 12.532C2.18579 12.2499 2.01668 11.8635 1.9265 11.1927C1.83439 10.5076 1.83333 9.60451 1.83333 8.33329V6.99996Z" fill="#A7A7A7"/>
</svg>
