<svg width="49" height="53" viewBox="0 0 49 53" fill="none" xmlns="http://www.w3.org/2000/svg">
<g clip-path="url(#clip0_284_1556)">
<path d="M39.4708 15.5876C39.4582 15.839 39.2722 15.839 39.1239 15.8968C38.2414 16.2086 37.3515 16.5052 36.4816 16.8471C36.1322 16.9829 35.9788 16.8321 35.7928 16.5957C33.9802 14.2703 31.6346 12.7417 28.7535 12.1861C23.9341 11.2534 19.9192 12.6965 16.7792 16.465C16.4373 16.8723 16.1859 16.9854 15.6881 16.7441C15.0295 16.4391 14.3498 16.182 13.6543 15.9748C13.1238 15.8063 12.988 15.6052 13.3425 15.1024C15.0549 12.6192 17.4477 10.683 20.2335 9.52629C23.8009 7.9884 27.819 7.86171 31.4762 9.17181C34.7671 10.3182 37.3565 12.4124 39.3049 15.2985C39.3653 15.3918 39.4207 15.4883 39.4708 15.5876V15.5876Z" fill="#F6D41D"/>
<path d="M34.8138 17.5637C34.8138 17.7297 34.6856 17.7297 34.5876 17.7624C34.0169 17.9635 33.4437 18.1545 32.8805 18.3758C32.6543 18.4638 32.5537 18.3758 32.433 18.2149C31.3229 16.7301 29.6983 15.7134 27.8776 15.364C24.7703 14.7656 22.1733 15.7009 20.142 18.1294C19.9233 18.3808 19.7599 18.4638 19.4381 18.3079C19.0127 18.1084 18.5732 17.9403 18.1232 17.8051C17.7813 17.6945 17.6908 17.5537 17.9221 17.2394C19.0304 15.6398 20.5762 14.3934 22.3744 13.6494C24.5421 12.729 26.964 12.5986 29.2179 13.2809C31.4718 13.9631 33.4149 15.4148 34.7082 17.3827C34.7535 17.4431 34.7837 17.5135 34.8138 17.5637Z" fill="#F6D41D"/>
<path d="M26.2689 16.4934C27.1994 16.4849 28.121 16.6752 28.9721 17.0515C29.8232 17.4278 30.5841 17.9816 31.2039 18.6756C31.4553 18.927 31.478 19.0879 31.0858 19.2614C29.3933 20.0103 27.7951 20.9563 26.3242 22.0796C26.2871 22.1198 26.2416 22.1513 26.191 22.172C26.1403 22.1927 26.0858 22.2021 26.0312 22.1994C25.9765 22.1968 25.9231 22.1822 25.8747 22.1568C25.8263 22.1313 25.7841 22.0955 25.751 22.052C24.494 20.8302 22.9856 20.0131 21.4545 19.2564C21.178 19.1206 21.0824 19.005 21.3137 18.7536C22.359 17.517 23.8378 16.7273 25.4468 16.5462C25.7535 16.5085 26.0653 16.506 26.2689 16.4934Z" fill="#F6D41D"/>
<path d="M17.0951 28.379C17.4635 29.1072 17.9268 29.7835 18.4727 30.3902C18.6028 30.5058 18.6888 30.6629 18.7163 30.8347C18.7438 31.0065 18.7111 31.1825 18.6236 31.333C17.9002 32.8064 17.4092 34.3829 17.168 36.0066C17.0825 36.5772 16.8814 36.537 16.5143 36.2404C13.8845 34.1456 11.9959 31.2624 11.1261 28.0147C10.2564 24.7669 10.4514 21.3258 11.6824 18.1971C12.0519 17.2493 12.0519 17.2393 13.0274 17.6139C16.5922 18.984 20.0817 20.5276 23.1287 22.9134C23.4706 23.185 23.7648 23.5193 24.0941 23.8084C24.3782 24.0598 24.162 24.1956 24.0036 24.3691C22.7466 25.7292 21.4242 27.0164 20.396 28.5625C20.3306 28.6605 20.2577 28.7536 20.1948 28.8516C19.4155 30.0131 19.413 30.0181 18.3646 29.0301C18.0454 28.7259 17.6481 28.4996 17.4244 28.0974C17.1453 27.4161 16.5068 27.0138 16.1297 26.4029C16.3245 27.1164 16.652 27.7868 17.0951 28.379V28.379Z" fill="white"/>
<path d="M17.096 28.3775C16.6489 27.7846 16.3179 27.1124 16.1206 26.3965C16.4977 27.0074 17.1262 27.4021 17.4153 28.0909C17.1916 28.0557 17.1388 28.2091 17.096 28.3775Z" fill="white"/>
<path d="M29.4497 30.7097C27.5798 32.9715 25.2551 34.8148 22.6266 36.1199C21.6029 36.6327 20.5414 37.0664 19.4514 37.4172C18.9059 37.5906 18.7525 37.4322 18.8832 36.8515C19.593 33.686 21.0908 30.751 23.2375 28.3189C27.172 23.7559 32.185 20.7768 37.6681 18.5141C38.3318 18.2376 38.9653 17.8982 39.6391 17.6342C40.3128 17.3703 40.5768 17.5915 40.8005 18.1974C42.3442 22.3782 42.3316 26.5415 40.4008 30.5614C37.8164 35.9515 33.437 38.9055 27.4888 39.5516C26.1343 39.6571 24.7719 39.5921 23.4336 39.358C23.4663 39.089 23.7026 38.8552 23.5669 38.561C26.0055 36.9621 27.6849 34.6995 29.1279 32.2257L29.6911 31.2653C29.9751 30.7801 30.317 30.32 30.3321 29.6136C29.9324 29.9756 29.6056 30.2698 29.4497 30.7097Z" fill="white"/>
<path d="M29.4497 30.7094C29.6056 30.2694 29.9324 29.9753 30.3321 29.6133C30.317 30.3197 29.9751 30.7798 29.6911 31.265C29.6659 31.0589 29.7514 30.7974 29.4497 30.7094Z" fill="white"/>
<path d="M23.5672 38.5605C23.703 38.8572 23.4666 39.0885 23.434 39.3575C23.1062 39.3784 22.7808 39.29 22.5088 39.1061L23.5672 38.5605Z" fill="white"/>
<path d="M23.7527 49.3184C11.2253 47.5862 1.95099 35.8507 3.30103 23.273C4.38458 10.9542 15.5167 1.23246 27.8807 2.02689C37.1701 2.35623 45.7304 8.87763 48.6517 17.6591L48.3651 17.7597C44.8454 8.16365 35.0407 1.99421 24.8915 3.12804C10.3981 4.58869 1.15153 19.879 6.7528 33.3367C9.62634 40.4564 16.5072 45.7233 24.1172 46.5756L23.7527 49.3184V49.3184Z" fill="white"/>
<path d="M22.8136 0.160898C21.3052 0.613425 19.9099 0.980474 18.5397 1.4506C13.0692 3.33361 8.83557 6.85075 5.71818 11.65C2.5505 16.5725 1.3136 22.0732 1.6731 27.9058C1.78366 30.4054 2.36182 32.8622 3.37762 35.1487C5.13744 38.9474 7.99337 41.738 11.7041 43.6361C15.3369 45.504 19.1079 46.2055 23.0449 44.775C24.2132 44.3485 25.3139 43.7558 26.3131 43.0152C29.0484 40.9763 32.1356 40.3578 35.3812 40.8556C38.0762 41.2704 40.2484 40.5237 42.3048 38.6483C42.3652 39.8374 41.6587 40.5087 41.1534 41.2377C40.085 42.7688 38.5916 43.5632 36.7237 43.7895C35.3075 43.975 33.9062 44.2606 32.5303 44.6442C32.123 44.7549 31.8289 45.2803 31.4819 45.6172C31.8289 45.9163 32.128 46.3437 32.5328 46.4895C33.9747 46.9921 35.5288 47.0792 37.0178 46.741C41.254 45.8812 44.2582 43.2213 46.8401 39.9732C47.4737 39.1762 48.0821 38.3617 48.703 37.5547L48.9193 37.6577C48.8802 37.8646 48.8307 38.0693 48.7709 38.2712C47.3178 42.4445 44.7284 45.7429 41.1786 48.3524C36.8368 51.5377 31.9294 52.7269 26.6223 52.752C22.5671 52.7715 18.565 51.8289 14.9447 50.0017C9.47753 47.3457 5.10652 42.868 2.58318 37.3385C-0.182249 31.4254 -0.752933 25.3113 1.02197 19.0287C2.59355 13.2945 6.04663 8.25474 10.8267 4.71885C14.3111 2.09419 18.223 0.593312 22.5144 0C22.5546 0 22.6074 0.0477667 22.8136 0.160898Z" fill="white"/>
</g>
<defs>
<clipPath id="clip0_284_1556">
<rect width="48.9205" height="52.752" fill="white"/>
</clipPath>
</defs>
</svg>
