<svg width="32" height="32" viewBox="0 0 32 32" fill="none" xmlns="http://www.w3.org/2000/svg">
<path fill-rule="evenodd" clip-rule="evenodd" d="M16.0672 9.3855C14.7884 9.38487 13.5383 9.76352 12.4748 10.4735C11.4113 11.1836 10.5823 12.1931 10.0926 13.3744C9.60299 14.5556 9.47471 15.8556 9.72403 17.1098C9.97334 18.364 10.589 19.516 11.4932 20.4202C12.3974 21.3244 13.5495 21.9401 14.8037 22.1895C16.0579 22.4388 17.3579 22.3105 18.5391 21.8208C19.7204 21.3312 20.7299 20.5022 21.4399 19.4387C22.15 18.3752 22.5286 17.125 22.528 15.8463C22.5254 14.1336 21.8439 12.4917 20.6328 11.2806C19.4218 10.0695 17.7799 9.38804 16.0672 9.3855ZM16.0672 20.4639C15.1538 20.4645 14.2607 20.1943 13.5009 19.6872C12.7411 19.1802 12.1488 18.4593 11.7988 17.6156C11.4488 16.7719 11.3569 15.8434 11.5347 14.9474C11.7125 14.0515 12.1521 13.2284 12.7977 12.5823C13.4434 11.9362 14.2661 11.4961 15.162 11.3177C16.0578 11.1392 16.9864 11.2305 17.8303 11.5799C18.6743 11.9293 19.3956 12.5211 19.9031 13.2806C20.4107 14.04 20.6816 14.9329 20.6816 15.8463C20.6837 16.4538 20.5659 17.0557 20.335 17.6176C20.1041 18.1794 19.7646 18.6902 19.3359 19.1207C18.9073 19.5511 18.3979 19.8927 17.837 20.126C17.2761 20.3592 16.6746 20.4795 16.0672 20.4799V20.4639Z" fill="#F6D41D"/>
<path fill-rule="evenodd" clip-rule="evenodd" d="M16.0672 3.84009C15.9459 3.84009 15.8258 3.86403 15.7138 3.91055C15.6017 3.95706 15.5 4.02523 15.4144 4.11115C15.3288 4.19707 15.2609 4.29904 15.2148 4.41122C15.1687 4.52341 15.1452 4.64359 15.1456 4.76489V6.61129C15.1594 6.84674 15.2627 7.06799 15.4344 7.22979C15.606 7.39159 15.8329 7.48171 16.0688 7.48171C16.3046 7.48171 16.5316 7.39159 16.7032 7.22979C16.8748 7.06799 16.9781 6.84674 16.992 6.61129V4.77129C16.9928 4.6493 16.9695 4.52836 16.9234 4.41542C16.8773 4.30247 16.8093 4.19977 16.7234 4.11321C16.6374 4.02666 16.5352 3.95797 16.4226 3.91109C16.3099 3.86422 16.1892 3.84008 16.0672 3.84009Z" fill="#F6D41D"/>
<path fill-rule="evenodd" clip-rule="evenodd" d="M16.0672 24.1536C15.9459 24.1536 15.8258 24.1775 15.7138 24.224C15.6017 24.2705 15.5 24.3387 15.4144 24.4246C15.3288 24.5105 15.2609 24.6125 15.2148 24.7247C15.1687 24.8369 15.1452 24.9571 15.1456 25.0784V26.9248C15.1594 27.1602 15.2627 27.3815 15.4344 27.5433C15.606 27.7051 15.8329 27.7952 16.0688 27.7952C16.3046 27.7952 16.5316 27.7051 16.7032 27.5433C16.8748 27.3815 16.9781 27.1602 16.992 26.9248V25.0784C16.992 24.8331 16.8945 24.5979 16.7211 24.4244C16.5477 24.251 16.3124 24.1536 16.0672 24.1536Z" fill="#F6D41D"/>
<path fill-rule="evenodd" clip-rule="evenodd" d="M24.5504 7.35994C24.3772 7.18817 24.1431 7.0918 23.8992 7.0918C23.6553 7.0918 23.4212 7.18817 23.248 7.35994L21.9424 8.66554C21.7693 8.83868 21.672 9.0735 21.672 9.31834C21.672 9.56319 21.7693 9.79801 21.9424 9.97114C22.1155 10.1443 22.3503 10.2415 22.5952 10.2415C22.84 10.2415 23.0749 10.1443 23.248 9.97114L24.5504 8.66554C24.6363 8.57992 24.7045 8.47819 24.751 8.36616C24.7975 8.25414 24.8215 8.13404 24.8215 8.01274C24.8215 7.89145 24.7975 7.77135 24.751 7.65932C24.7045 7.5473 24.6363 7.44556 24.5504 7.35994Z" fill="#F6D41D"/>
<path fill-rule="evenodd" clip-rule="evenodd" d="M10.1952 21.7216C10.0219 21.5489 9.78713 21.4519 9.54241 21.4519C9.2977 21.4519 9.06295 21.5489 8.88961 21.7216L7.58401 23.04C7.44856 23.2187 7.3829 23.4407 7.39933 23.6643C7.41576 23.8879 7.51315 24.0979 7.67327 24.2549C7.83338 24.4118 8.04523 24.5051 8.26914 24.5171C8.49304 24.529 8.71364 24.459 8.88961 24.32L10.1952 23.04C10.2823 22.9538 10.3514 22.8511 10.3986 22.7379C10.4458 22.6248 10.47 22.5034 10.47 22.3808C10.47 22.2583 10.4458 22.1369 10.3986 22.0237C10.3514 21.9106 10.2823 21.8079 10.1952 21.7216Z" fill="#F6D41D"/>
<path fill-rule="evenodd" clip-rule="evenodd" d="M4.0672 15.8464C4.0672 16.0917 4.16463 16.3269 4.33807 16.5003C4.5115 16.6738 4.74673 16.7712 4.992 16.7712H6.8384C7.07385 16.7573 7.29511 16.654 7.45691 16.4824C7.61871 16.3108 7.70882 16.0839 7.70882 15.848C7.70882 15.6122 7.61871 15.3852 7.45691 15.2136C7.29511 15.042 7.07385 14.9387 6.8384 14.9248H4.992C4.8707 14.9244 4.75052 14.9479 4.63834 14.994C4.52615 15.0402 4.42418 15.108 4.33826 15.1936C4.25234 15.2792 4.18417 15.381 4.13766 15.493C4.09114 15.605 4.0672 15.7251 4.0672 15.8464Z" fill="#F6D41D"/>
<path fill-rule="evenodd" clip-rule="evenodd" d="M24.3744 15.8464C24.3744 16.0917 24.4718 16.3269 24.6453 16.5003C24.8187 16.6738 25.0539 16.7712 25.2992 16.7712H27.1456C27.381 16.7573 27.6023 16.654 27.7641 16.4824C27.9259 16.3108 28.016 16.0839 28.016 15.848C28.016 15.6121 27.9259 15.3852 27.7641 15.2136C27.6023 15.042 27.381 14.9387 27.1456 14.9248H25.2992C25.0545 14.9248 24.8197 15.0218 24.6464 15.1945C24.473 15.3673 24.3752 15.6017 24.3744 15.8464Z" fill="#F6D41D"/>
<path fill-rule="evenodd" clip-rule="evenodd" d="M7.58081 7.35993C7.40884 7.53368 7.31238 7.76827 7.31238 8.01273C7.31238 8.25719 7.40884 8.49178 7.58081 8.66553L8.88641 9.96793C8.97192 10.0537 9.07349 10.1217 9.1853 10.1682C9.29711 10.2147 9.41699 10.2386 9.53807 10.2388C9.65916 10.2389 9.77909 10.2152 9.89102 10.169C10.0029 10.1228 10.1047 10.055 10.1904 9.96953C10.2761 9.88401 10.3442 9.78245 10.3907 9.67063C10.4371 9.55882 10.4611 9.43895 10.4613 9.31786C10.4614 9.19677 10.4377 9.07684 10.3915 8.96492C10.3453 8.85299 10.2775 8.75126 10.192 8.66553L8.88641 7.35993C8.80079 7.27401 8.69905 7.20584 8.58703 7.15933C8.475 7.11281 8.3549 7.08887 8.23361 7.08887C8.11231 7.08887 7.99221 7.11281 7.88019 7.15933C7.76816 7.20584 7.66643 7.27401 7.58081 7.35993Z" fill="#F6D41D"/>
<path fill-rule="evenodd" clip-rule="evenodd" d="M21.9424 21.7215C21.7697 21.8949 21.6727 22.1296 21.6727 22.3743C21.6727 22.619 21.7697 22.8538 21.9424 23.0271L23.248 24.3199C23.424 24.4589 23.6446 24.5289 23.8685 24.5169C24.0924 24.5049 24.3042 24.4117 24.4644 24.2547C24.6245 24.0978 24.7219 23.8878 24.7383 23.6642C24.7547 23.4405 24.6891 23.2186 24.5536 23.0399L23.248 21.7343C23.1632 21.6475 23.0622 21.5784 22.9506 21.5308C22.839 21.4831 22.7192 21.458 22.5979 21.4568C22.4766 21.4556 22.3562 21.4784 22.2437 21.5238C22.1313 21.5693 22.0289 21.6364 21.9424 21.7215Z" fill="#F6D41D"/>
</svg>
