<svg width="56" height="56" viewBox="0 0 56 56" fill="none" xmlns="http://www.w3.org/2000/svg">
<path fill-rule="evenodd" clip-rule="evenodd" d="M28.1176 16.4248C25.8798 16.4237 23.692 17.0863 21.8309 18.3289C19.9698 19.5714 18.519 21.3381 17.6621 23.4053C16.8053 25.4725 16.5808 27.7475 17.0171 29.9423C17.4534 32.1371 18.5309 34.1532 20.1132 35.7356C21.6956 37.3179 23.7117 38.3954 25.9065 38.8317C28.1013 39.268 30.3763 39.0435 32.4435 38.1867C34.5107 37.3298 36.2774 35.879 37.5199 34.0179C38.7625 32.1568 39.4251 29.969 39.424 27.7312C39.4195 24.7339 38.2269 21.8607 36.1075 19.7413C33.9881 17.6219 31.1149 16.4292 28.1176 16.4248ZM28.1176 35.812C26.5191 35.8131 24.9562 35.3401 23.6266 34.4529C22.297 33.5656 21.2604 32.304 20.6479 30.8275C20.0354 29.351 19.8746 27.726 20.1858 26.1582C20.4969 24.5903 21.2661 23.1499 22.396 22.0192C23.5259 20.8885 24.9658 20.1183 26.5334 19.8061C28.1011 19.4938 29.7262 19.6535 31.2031 20.265C32.68 20.8764 33.9424 21.9122 34.8305 23.2412C35.7187 24.5702 36.1928 26.1327 36.1928 27.7312C36.1965 28.7943 35.9904 29.8476 35.5863 30.8309C35.1822 31.8142 34.588 32.7081 33.8379 33.4613C33.0877 34.2146 32.1963 34.8124 31.2147 35.2206C30.2332 35.6288 29.1807 35.8393 28.1176 35.84V35.812Z" fill="#F27C1C"/>
<path fill-rule="evenodd" clip-rule="evenodd" d="M28.1176 6.71997C27.9053 6.71997 27.6951 6.76187 27.4991 6.84327C27.303 6.92467 27.125 7.04397 26.9752 7.19433C26.8253 7.34468 26.7066 7.52314 26.6259 7.71946C26.5452 7.91578 26.504 8.1261 26.5048 8.33837V11.5696C26.529 11.9816 26.7098 12.3688 27.0101 12.652C27.3105 12.9351 27.7076 13.0928 28.1204 13.0928C28.5331 13.0928 28.9303 12.9351 29.2306 12.652C29.5309 12.3688 29.7117 11.9816 29.736 11.5696V8.34957C29.7374 8.1361 29.6967 7.92444 29.616 7.7268C29.5353 7.52915 29.4164 7.34941 29.2659 7.19794C29.1155 7.04647 28.9366 6.92626 28.7395 6.84423C28.5424 6.7622 28.331 6.71997 28.1176 6.71997Z" fill="#F27C1C"/>
<path fill-rule="evenodd" clip-rule="evenodd" d="M28.1176 42.2688C27.9053 42.2688 27.6951 42.3107 27.4991 42.3921C27.303 42.4735 27.125 42.5928 26.9752 42.7432C26.8253 42.8935 26.7066 43.072 26.6259 43.2683C26.5452 43.4646 26.504 43.6749 26.5048 43.8872V47.1184C26.529 47.5304 26.7098 47.9176 27.0101 48.2008C27.3105 48.4839 27.7076 48.6416 28.1204 48.6416C28.5331 48.6416 28.9303 48.4839 29.2306 48.2008C29.5309 47.9176 29.7117 47.5304 29.736 47.1184V43.8872C29.736 43.458 29.5655 43.0463 29.262 42.7428C28.9584 42.4393 28.5468 42.2688 28.1176 42.2688Z" fill="#F27C1C"/>
<path fill-rule="evenodd" clip-rule="evenodd" d="M42.9632 12.8799C42.6601 12.5793 42.2505 12.4106 41.8236 12.4106C41.3967 12.4106 40.9871 12.5793 40.684 12.8799L38.3992 15.1647C38.0962 15.4677 37.926 15.8786 37.926 16.3071C37.926 16.7356 38.0962 17.1465 38.3992 17.4495C38.7022 17.7525 39.1131 17.9227 39.5416 17.9227C39.9701 17.9227 40.381 17.7525 40.684 17.4495L42.9632 15.1647C43.1136 15.0149 43.2329 14.8368 43.3143 14.6408C43.3957 14.4447 43.4376 14.2346 43.4376 14.0223C43.4376 13.81 43.3957 13.5999 43.3143 13.4038C43.2329 13.2078 43.1136 13.0297 42.9632 12.8799Z" fill="#F27C1C"/>
<path fill-rule="evenodd" clip-rule="evenodd" d="M17.8416 38.0128C17.5382 37.7105 17.1274 37.5408 16.6992 37.5408C16.2709 37.5408 15.8601 37.7105 15.5568 38.0128L13.272 40.32C13.035 40.6327 12.92 41.0211 12.9488 41.4125C12.9775 41.8038 13.148 42.1712 13.4282 42.4459C13.7084 42.7207 14.0791 42.8838 14.471 42.9048C14.8628 42.9258 15.2488 42.8032 15.5568 42.56L17.8416 40.32C17.994 40.169 18.1149 39.9893 18.1975 39.7913C18.28 39.5933 18.3225 39.3809 18.3225 39.1664C18.3225 38.9519 18.28 38.7395 18.1975 38.5415C18.1149 38.3435 17.994 38.1638 17.8416 38.0128Z" fill="#F27C1C"/>
<path fill-rule="evenodd" clip-rule="evenodd" d="M7.11761 27.7312C7.11761 28.1604 7.28812 28.5721 7.59163 28.8756C7.89514 29.1791 8.30679 29.3496 8.73601 29.3496H11.9672C12.3793 29.3253 12.7665 29.1446 13.0496 28.8442C13.3328 28.5439 13.4905 28.1468 13.4905 27.734C13.4905 27.3213 13.3328 26.9241 13.0496 26.6238C12.7665 26.3235 12.3793 26.1427 11.9672 26.1184H8.73601C8.52375 26.1177 8.31342 26.1589 8.1171 26.2396C7.92078 26.3203 7.74233 26.439 7.59197 26.5888C7.44162 26.7386 7.32232 26.9167 7.24092 27.1127C7.15951 27.3088 7.11761 27.519 7.11761 27.7312Z" fill="#F27C1C"/>
<path fill-rule="evenodd" clip-rule="evenodd" d="M42.6552 27.7312C42.6552 28.1604 42.8257 28.5721 43.1292 28.8756C43.4327 29.1791 43.8444 29.3496 44.2736 29.3496H47.5048C47.9169 29.3253 48.3041 29.1446 48.5872 28.8442C48.8704 28.5439 49.0281 28.1468 49.0281 27.734C49.0281 27.3213 48.8704 26.9241 48.5872 26.6238C48.3041 26.3235 47.9169 26.1427 47.5048 26.1184H44.2736C43.8454 26.1184 43.4346 26.2881 43.1312 26.5904C42.8279 26.8927 42.6567 27.303 42.6552 27.7312Z" fill="#F27C1C"/>
<path fill-rule="evenodd" clip-rule="evenodd" d="M13.2664 12.8801C12.9654 13.1842 12.7966 13.5947 12.7966 14.0225C12.7966 14.4503 12.9654 14.8609 13.2664 15.1649L15.5512 17.4441C15.7008 17.5941 15.8786 17.7132 16.0742 17.7946C16.2699 17.8759 16.4797 17.9179 16.6916 17.9181C16.9035 17.9184 17.1134 17.8769 17.3093 17.7961C17.5051 17.7152 17.6832 17.5966 17.8332 17.4469C17.9832 17.2973 18.1023 17.1195 18.1836 16.9239C18.2649 16.7282 18.3069 16.5184 18.3072 16.3065C18.3075 16.0946 18.266 15.8847 18.1851 15.6888C18.1043 15.493 17.9856 15.3149 17.836 15.1649L15.5512 12.8801C15.4013 12.7298 15.2233 12.6105 15.0273 12.5291C14.8312 12.4477 14.621 12.4058 14.4088 12.4058C14.1965 12.4058 13.9863 12.4477 13.7903 12.5291C13.5943 12.6105 13.4162 12.7298 13.2664 12.8801Z" fill="#F27C1C"/>
<path fill-rule="evenodd" clip-rule="evenodd" d="M38.3992 38.0128C38.0969 38.3162 37.9272 38.727 37.9272 39.1552C37.9272 39.5835 38.0969 39.9943 38.3992 40.2976L40.684 42.56C40.992 42.8032 41.378 42.9258 41.7699 42.9048C42.1617 42.8838 42.5324 42.7207 42.8126 42.446C43.0928 42.1713 43.2633 41.8038 43.292 41.4125C43.3208 41.0211 43.2059 40.6327 42.9688 40.32L40.684 38.0352C40.5357 37.8834 40.3588 37.7623 40.1636 37.679C39.9683 37.5957 39.7585 37.5517 39.5463 37.5496C39.334 37.5476 39.1234 37.5874 38.9266 37.6669C38.7297 37.7464 38.5505 37.8639 38.3992 38.0128Z" fill="#F27C1C"/>
</svg>
