<svg width="14" height="14" viewBox="0 0 14 14" fill="none" xmlns="http://www.w3.org/2000/svg">
<path fill-rule="evenodd" clip-rule="evenodd" d="M5.16317 0.849986C5.00081 0.988341 4.91963 1.05752 4.83294 1.11563C4.6342 1.24883 4.41101 1.34128 4.1763 1.38762C4.0739 1.40784 3.96759 1.41632 3.75495 1.43329C3.22069 1.47592 2.95356 1.49724 2.7307 1.57596C2.21524 1.75803 1.80978 2.16348 1.62771 2.67894C1.549 2.90181 1.52768 3.16893 1.48505 3.70319C1.46808 3.91583 1.45959 4.02215 1.43938 4.12454C1.39304 4.35925 1.30059 4.58244 1.16739 4.78118C1.10928 4.86788 1.0401 4.94905 0.901744 5.11141C0.554119 5.51933 0.380299 5.72329 0.278373 5.93654C0.0426257 6.42977 0.0426257 7.00317 0.278373 7.4964C0.380299 7.70965 0.554114 7.91361 0.901744 8.32154C1.04009 8.48387 1.10928 8.56507 1.16739 8.65176C1.30059 8.8505 1.39304 9.07369 1.43938 9.3084C1.45959 9.4108 1.46808 9.51712 1.48505 9.72975C1.52768 10.264 1.549 10.5311 1.62771 10.754C1.80978 11.2695 2.21524 11.6749 2.7307 11.857C2.95356 11.9357 3.22069 11.957 3.75495 11.9997C3.96759 12.0166 4.0739 12.0251 4.1763 12.0453C4.41101 12.0917 4.6342 12.1841 4.83294 12.3173C4.91963 12.3754 5.00081 12.4446 5.16317 12.583C5.57109 12.9306 5.77505 13.1044 5.9883 13.2063C6.48153 13.4421 7.05493 13.4421 7.54816 13.2063C7.76141 13.1044 7.96537 12.9306 8.37329 12.583C8.53565 12.4446 8.61683 12.3754 8.70352 12.3173C8.90226 12.1841 9.12545 12.0917 9.36016 12.0453C9.46255 12.0251 9.56887 12.0166 9.78151 11.9997C10.3158 11.957 10.5829 11.9357 10.8058 11.857C11.3212 11.6749 11.7267 11.2695 11.9087 10.754C11.9875 10.5311 12.0088 10.264 12.0514 9.72975C12.0684 9.51712 12.0769 9.4108 12.0971 9.3084C12.1434 9.07369 12.2359 8.8505 12.3691 8.65176C12.4272 8.56507 12.4964 8.48389 12.6347 8.32154C12.9823 7.91361 13.1562 7.70965 13.2581 7.4964C13.4938 7.00317 13.4938 6.42977 13.2581 5.93654C13.1562 5.72329 12.9823 5.51933 12.6347 5.11141C12.4964 4.94905 12.4272 4.86788 12.3691 4.78118C12.2359 4.58244 12.1434 4.35925 12.0971 4.12454C12.0769 4.02215 12.0684 3.91583 12.0514 3.70319C12.0088 3.16893 11.9875 2.90181 11.9087 2.67894C11.7267 2.16348 11.3212 1.75803 10.8058 1.57596C10.5829 1.49724 10.3158 1.47592 9.78151 1.43329C9.56887 1.41632 9.46256 1.40784 9.36016 1.38762C9.12545 1.34128 8.90226 1.24883 8.70352 1.11563C8.61682 1.05752 8.53565 0.988343 8.37329 0.849986C7.96537 0.502356 7.76141 0.328542 7.54816 0.226615C7.05493 -0.00913211 6.48153 -0.00913211 5.9883 0.226615C5.77505 0.328541 5.57108 0.50236 5.16317 0.849986ZM9.68389 5.2919C9.89577 5.08001 9.89577 4.73647 9.68389 4.52458C9.472 4.31269 9.12846 4.31269 8.91657 4.52458L5.68307 7.75808L4.61987 6.69487C4.40798 6.48299 4.06444 6.48299 3.85255 6.69487C3.64067 6.90676 3.64067 7.2503 3.85255 7.46219L5.29942 8.90905C5.5113 9.12094 5.85484 9.12094 6.06673 8.90905L9.68389 5.2919Z" fill="#008842"/>
</svg>
