<svg width="15" height="14" viewBox="0 0 15 14" fill="none" xmlns="http://www.w3.org/2000/svg">
<path fill-rule="evenodd" clip-rule="evenodd" d="M5.88192 0.837046C5.71956 0.975401 5.63838 1.04458 5.55169 1.10269C5.35295 1.23589 5.12976 1.32834 4.89505 1.37468C4.79265 1.3949 4.68634 1.40338 4.4737 1.42035C3.93944 1.46298 3.67231 1.4843 3.44945 1.56302C2.93399 1.74509 2.52853 2.15054 2.34646 2.666C2.26775 2.88887 2.24643 3.156 2.2038 3.69025C2.18683 3.90289 2.17834 4.00921 2.15813 4.1116C2.11179 4.34631 2.01934 4.5695 1.88614 4.76824C1.82803 4.85494 1.75885 4.93611 1.62049 5.09847C1.27287 5.50639 1.09905 5.71035 0.997123 5.9236C0.761376 6.41683 0.761376 6.99023 0.997123 7.48346C1.09905 7.69671 1.27286 7.90067 1.62049 8.3086C1.75884 8.47093 1.82803 8.55213 1.88614 8.63882C2.01934 8.83756 2.11179 9.06075 2.15813 9.29547C2.17834 9.39786 2.18683 9.50418 2.2038 9.71681C2.24643 10.2511 2.26775 10.5182 2.34646 10.7411C2.52853 11.2565 2.93399 11.662 3.44945 11.844C3.67231 11.9228 3.93944 11.9441 4.4737 11.9867C4.68634 12.0037 4.79265 12.0122 4.89505 12.0324C5.12976 12.0787 5.35295 12.1712 5.55169 12.3044C5.63838 12.3625 5.71956 12.4317 5.88192 12.57C6.28984 12.9176 6.4938 13.0915 6.70705 13.1934C7.20028 13.4291 7.77368 13.4291 8.26691 13.1934C8.48016 13.0915 8.68412 12.9176 9.09204 12.57C9.2544 12.4317 9.33558 12.3625 9.42227 12.3044C9.62101 12.1712 9.8442 12.0787 10.0789 12.0324C10.1813 12.0122 10.2876 12.0037 10.5003 11.9867C11.0345 11.9441 11.3016 11.9228 11.5245 11.844C12.04 11.662 12.4454 11.2565 12.6275 10.7411C12.7062 10.5182 12.7275 10.2511 12.7702 9.71681C12.7871 9.50418 12.7956 9.39786 12.8158 9.29547C12.8622 9.06075 12.9546 8.83756 13.0878 8.63883C13.1459 8.55213 13.2151 8.47095 13.3535 8.3086C13.7011 7.90067 13.8749 7.69671 13.9768 7.48346C14.2126 6.99023 14.2126 6.41683 13.9768 5.9236C13.8749 5.71035 13.7011 5.50639 13.3535 5.09847C13.2151 4.93611 13.1459 4.85494 13.0878 4.76824C12.9546 4.5695 12.8622 4.34631 12.8158 4.1116C12.7956 4.00921 12.7871 3.90289 12.7702 3.69025C12.7275 3.156 12.7062 2.88887 12.6275 2.666C12.4454 2.15054 12.04 1.74509 11.5245 1.56302C11.3016 1.4843 11.0345 1.46298 10.5003 1.42035C10.2876 1.40338 10.1813 1.3949 10.0789 1.37468C9.8442 1.32834 9.62101 1.23589 9.42227 1.10269C9.33557 1.04458 9.2544 0.975404 9.09204 0.837046C8.68412 0.489417 8.48016 0.315602 8.26691 0.213676C7.77368 -0.0220716 7.20028 -0.0220716 6.70705 0.213676C6.4938 0.315602 6.28983 0.489421 5.88192 0.837046ZM10.4026 5.27896C10.6145 5.06707 10.6145 4.72353 10.4026 4.51164C10.1907 4.29975 9.84721 4.29975 9.63532 4.51164L6.40182 7.74514L5.33862 6.68193C5.12673 6.47005 4.78319 6.47005 4.5713 6.68193C4.35942 6.89382 4.35942 7.23736 4.5713 7.44925L6.01817 8.89611C6.23005 9.108 6.57359 9.108 6.78548 8.89611L10.4026 5.27896Z" fill="#A7A7A7"/>
</svg>
