<svg width="57" height="57" viewBox="0 0 57 57" fill="none" xmlns="http://www.w3.org/2000/svg">
<rect width="56" height="56" transform="translate(0.0585938 0.594727)" fill="#F6F6F6"/>
<path d="M49.2888 22.7034C49.2858 20.7646 48.5143 18.9061 47.1434 17.5352C45.7725 16.1643 43.914 15.3928 41.9752 15.3898C41.7792 15.3898 41.5832 15.3898 41.4152 15.3898C40.4739 14.2151 39.2807 13.2669 37.9236 12.6153C36.5666 11.9638 35.0805 11.6255 33.5752 11.6255C32.0699 11.6255 30.5838 11.9638 29.2268 12.6153C27.8697 13.2669 26.6765 14.2151 25.7352 15.3898C25.5392 15.3898 25.3432 15.3898 25.1416 15.3898C23.2082 15.4002 21.3574 16.1751 19.9934 17.5454C18.6294 18.9157 17.8631 20.77 17.8616 22.7034C17.8685 23.1168 17.9097 23.5289 17.9848 23.9354C17.94 23.9914 17.884 24.0474 17.8448 24.1034C17.416 24.0457 16.9839 24.0158 16.5512 24.0138C15.3257 23.9835 14.1065 24.1988 12.9654 24.6469C11.8244 25.095 10.7845 25.7668 9.90704 26.6229C9.02957 27.4789 8.33226 28.5019 7.85615 29.6316C7.38004 30.7612 7.13477 31.9747 7.13477 33.2006C7.13477 34.4265 7.38004 35.64 7.85615 36.7696C8.33226 37.8993 9.02957 38.9223 9.90704 39.7783C10.7845 40.6344 11.8244 41.3063 12.9654 41.7543C14.1065 42.2024 15.3257 42.4177 16.5512 42.3874C17.6633 42.3892 18.7663 42.186 19.8048 41.7882C22.1707 43.8669 25.2123 45.0133 28.3616 45.0133C31.5109 45.0133 34.5525 43.8669 36.9184 41.7882C37.9568 42.1865 39.0598 42.3897 40.172 42.3874C42.6078 42.3859 44.9435 41.418 46.6664 39.6962C48.3893 37.9743 49.3586 35.6392 49.3616 33.2034C49.3613 31.1715 48.6768 29.1988 47.4184 27.6034C48.629 26.2592 49.2958 24.5124 49.2888 22.7034ZM40.0992 39.7946C38.7487 39.7923 37.4321 39.3717 36.3304 38.5906C35.356 39.788 34.1265 40.7528 32.7317 41.4146C31.3369 42.0763 29.8119 42.4183 28.2681 42.4157C26.7243 42.413 25.2006 42.0657 23.8081 41.3991C22.4156 40.7325 21.1895 39.7634 20.2192 38.5626C19.2872 39.218 18.2005 39.6192 17.0662 39.7267C15.9319 39.8342 14.7892 39.6444 13.7506 39.1758C12.712 38.7073 11.8134 37.9762 11.1434 37.0546C10.4734 36.1331 10.0551 35.0529 9.9296 33.9204C9.80414 32.788 9.97591 31.6424 10.428 30.5965C10.88 29.5507 11.5968 28.6407 12.5076 27.9561C13.4185 27.2716 14.4919 26.8362 15.6222 26.6929C16.7526 26.5495 17.9007 26.7031 18.9536 27.1386C18.9984 27.049 19.0544 26.9706 19.0992 26.8866C19.5525 26.0486 20.1177 25.2762 20.7792 24.5906C21.7429 23.5791 22.9019 22.7737 24.186 22.2231C25.47 21.6725 26.8525 21.3882 28.2496 21.3874C30.1845 21.3895 32.0808 21.9281 33.7279 22.9434C35.3749 23.9587 36.7081 25.4109 37.5792 27.1386C38.0517 26.9513 38.5439 26.8179 39.0464 26.741L40.0768 26.6402C41.8212 26.6372 43.4953 27.3273 44.7309 28.5587C45.9664 29.7901 46.6622 31.4618 46.6652 33.2062C46.6682 34.9506 45.9781 36.6247 44.7467 37.8603C43.5153 39.0958 41.8436 39.7916 40.0992 39.7946ZM45.4808 25.7946C43.9211 24.6462 42.0361 24.0244 40.0992 24.0194C39.6665 24.0212 39.2344 24.0511 38.8056 24.109C36.7758 21.3273 33.7251 19.4648 30.3233 18.9304C26.9214 18.3959 23.4466 19.2333 20.6616 21.2586C20.9644 20.3199 21.5566 19.5011 22.3533 18.9196C23.1501 18.3381 24.1104 18.0239 25.0968 18.0218C25.7098 18.0191 26.3172 18.1391 26.8832 18.3746C27.5021 17.1404 28.4521 16.1027 29.627 15.3775C30.8019 14.6524 32.1553 14.2683 33.536 14.2683C34.9167 14.2683 36.2701 14.6524 37.445 15.3775C38.6199 16.1027 39.5699 17.1404 40.1888 18.3746C41.1659 17.9691 42.2516 17.9069 43.2686 18.1982C44.2856 18.4895 45.1738 19.1171 45.788 19.9783C46.4023 20.8396 46.7064 21.8837 46.6506 22.9401C46.5948 23.9966 46.1824 25.0028 45.4808 25.7946Z" fill="#008842"/>
</svg>
