<svg width="57" height="57" viewBox="0 0 57 57" fill="none" xmlns="http://www.w3.org/2000/svg">
<rect width="56" height="56" transform="translate(0.0585938 0.594727)" fill="#F6F6F6"/>
<path d="M39.8691 13.7715C39.4363 13.7705 39.004 13.8004 38.5755 13.8611C37.367 12.2053 35.7846 10.8582 33.9571 9.92955C32.1296 9.00088 30.1086 8.51685 28.0587 8.51685C26.0088 8.51685 23.9878 9.00088 22.1603 9.92955C20.3328 10.8582 18.7504 12.2053 17.5419 13.8611C16.2914 13.6797 15.0169 13.7582 13.7981 14.0916C12.5793 14.425 11.4424 15.0061 10.4583 15.7988C9.47424 16.5914 8.66421 17.5784 8.07883 18.6982C7.49345 19.818 7.14529 21.0465 7.05612 22.307C6.96694 23.5674 7.13866 24.8327 7.56055 26.0238C7.98243 27.2148 8.64542 28.3061 9.50808 29.2294C10.3707 30.1527 11.4145 30.8881 12.5743 31.3898C13.734 31.8915 14.9847 32.1486 16.2483 32.1451C17.3605 32.1474 18.4635 31.9442 19.5019 31.5459C21.8677 33.6246 24.9094 34.771 28.0587 34.771C31.208 34.771 34.2496 33.6246 36.6155 31.5459C37.654 31.9437 38.757 32.1468 39.8691 32.1451C41.0946 32.1753 42.3138 31.9601 43.4548 31.512C44.5959 31.0639 45.6358 30.3921 46.5133 29.536C47.3907 28.68 48.088 27.657 48.5641 26.5273C49.0403 25.3977 49.2855 24.1842 49.2855 22.9583C49.2855 21.7324 49.0403 20.5189 48.5641 19.3892C48.088 18.2596 47.3907 17.2366 46.5133 16.3805C45.6358 15.5245 44.5959 14.8526 43.4548 14.4045C42.3138 13.9565 41.0946 13.7412 39.8691 13.7715ZM39.8691 29.5187C38.5192 29.518 37.2026 29.0994 36.1003 28.3203C35.1278 29.5154 33.9012 30.4788 32.5097 31.1405C31.1182 31.8022 29.5967 32.1455 28.0559 32.1455C26.5151 32.1455 24.9936 31.8022 23.6021 31.1405C22.2106 30.4788 20.984 29.5154 20.0115 28.3203C19.0795 28.9756 17.9928 29.3769 16.8585 29.4844C15.7242 29.5919 14.5815 29.402 13.5429 28.9335C12.5043 28.4649 11.6057 27.7339 10.9357 26.8123C10.2657 25.8908 9.84735 24.8106 9.72189 23.6781C9.59643 22.5457 9.7682 21.4001 10.2203 20.3542C10.6723 19.3084 11.3891 18.3983 12.2999 17.7138C13.2107 17.0293 14.2842 16.5939 15.4145 16.4506C16.5449 16.3072 17.693 16.4608 18.7459 16.8963C19.6117 15.168 20.9413 13.7147 22.5861 12.6991C24.2308 11.6835 26.1257 11.1456 28.0587 11.1456C29.9917 11.1456 31.8866 11.6835 33.5313 12.6991C35.176 13.7147 36.5057 15.168 37.3715 16.8963C38.2675 16.5278 39.234 16.3625 40.2015 16.4121C41.169 16.4617 42.1135 16.7251 42.967 17.1833C43.8206 17.6415 44.5621 18.2831 45.1381 19.062C45.7141 19.841 46.1104 20.7379 46.2984 21.6882C46.4865 22.6386 46.4616 23.6188 46.2256 24.5584C45.9897 25.498 45.5484 26.3736 44.9337 27.1224C44.3189 27.8711 43.5459 28.4743 42.6702 28.8887C41.7945 29.303 40.8379 29.5182 39.8691 29.5187Z" fill="#008842"/>
<path d="M31.4187 44.1124H29.5035L30.4499 42.4772C30.5551 42.2859 30.5811 42.0611 30.5225 41.8508C30.4638 41.6406 30.3251 41.4617 30.1361 41.3526C29.9471 41.2434 29.7228 41.2127 29.5114 41.2669C29.3 41.3212 29.1182 41.4561 29.0051 41.6428L28.0587 43.2836L27.1123 41.6428C26.9992 41.4561 26.8175 41.3212 26.6061 41.2669C26.3946 41.2127 26.1704 41.2434 25.9814 41.3526C25.7924 41.4617 25.6536 41.6406 25.595 41.8508C25.5363 42.0611 25.5623 42.2859 25.6675 42.4772L26.6139 44.1124H24.7267C24.5039 44.1124 24.2903 44.2009 24.1327 44.3584C23.9752 44.5159 23.8867 44.7296 23.8867 44.9524C23.8867 45.1752 23.9752 45.3888 24.1327 45.5464C24.2903 45.7039 24.5039 45.7924 24.7267 45.7924H26.6139L25.6675 47.4276C25.61 47.5226 25.572 47.6281 25.5557 47.7379C25.5395 47.8478 25.5454 47.9598 25.573 48.0673C25.6006 48.1749 25.6494 48.2759 25.7165 48.3643C25.7836 48.4528 25.8677 48.5269 25.9639 48.5825C26.06 48.638 26.1663 48.6738 26.2765 48.6877C26.3867 48.7017 26.4985 48.6935 26.6055 48.6636C26.7124 48.6338 26.8124 48.5829 26.8994 48.5139C26.9864 48.4449 27.0588 48.3593 27.1123 48.262L28.0587 46.6156L29.0051 48.2508C29.0586 48.3481 29.131 48.4337 29.2181 48.5027C29.3051 48.5717 29.405 48.6226 29.512 48.6524C29.6189 48.6823 29.7308 48.6905 29.8409 48.6765C29.9511 48.6626 30.0574 48.6268 30.1536 48.5713C30.2497 48.5158 30.3338 48.4416 30.401 48.3531C30.4681 48.2647 30.5169 48.1637 30.5445 48.0561C30.5721 47.9486 30.5779 47.8366 30.5617 47.7267C30.5455 47.6169 30.5075 47.5114 30.4499 47.4164L29.5035 45.7812H31.4187C31.6415 45.7812 31.8552 45.6927 32.0127 45.5352C32.1702 45.3776 32.2587 45.164 32.2587 44.9412C32.2587 44.7184 32.1702 44.5047 32.0127 44.3472C31.8552 44.1897 31.6415 44.1012 31.4187 44.1012V44.1124Z" fill="#008842"/>
<path d="M21.2833 38.2044H19.3905L20.3369 36.5636C20.4311 36.3732 20.4491 36.154 20.3872 35.9508C20.3254 35.7476 20.1884 35.5756 20.0041 35.4699C19.8199 35.3642 19.6023 35.3328 19.3956 35.382C19.189 35.4312 19.0089 35.5574 18.8921 35.7348L17.9457 37.37L17.0049 35.7348C16.9544 35.6327 16.8835 35.542 16.7967 35.4683C16.7098 35.3947 16.6088 35.3395 16.4998 35.3064C16.3909 35.2732 16.2763 35.2627 16.1631 35.2756C16.0499 35.2884 15.9406 35.3242 15.8418 35.3809C15.743 35.4376 15.6568 35.5139 15.5886 35.6051C15.5204 35.6963 15.4717 35.8005 15.4453 35.9113C15.4189 36.0221 15.4154 36.1372 15.4352 36.2493C15.4549 36.3615 15.4975 36.4685 15.5601 36.5636L16.5065 38.2044H14.6193C14.3965 38.2044 14.1829 38.2929 14.0253 38.4504C13.8678 38.6079 13.7793 38.8216 13.7793 39.0444C13.7793 39.2672 13.8678 39.4808 14.0253 39.6384C14.1829 39.7959 14.3965 39.8844 14.6193 39.8844H16.5121L15.5657 41.5252C15.5031 41.6203 15.4605 41.7272 15.4408 41.8394C15.421 41.9516 15.4245 42.0666 15.4509 42.1774C15.4773 42.2882 15.526 42.3924 15.5942 42.4837C15.6624 42.5749 15.7486 42.6512 15.8474 42.7079C15.9462 42.7646 16.0555 42.8004 16.1687 42.8132C16.2819 42.826 16.3965 42.8155 16.5054 42.7824C16.6144 42.7492 16.7154 42.6941 16.8023 42.6204C16.8892 42.5468 16.96 42.4561 17.0105 42.354L17.9513 40.7188L18.8977 42.354C19.0145 42.5314 19.1946 42.6575 19.4012 42.7068C19.6079 42.756 19.8255 42.7245 20.0097 42.6188C20.194 42.5131 20.331 42.3412 20.3928 42.1379C20.4547 41.9347 20.4367 41.7156 20.3425 41.5252L19.3961 39.8844H21.2833C21.5061 39.8844 21.7197 39.7959 21.8773 39.6384C22.0348 39.4808 22.1233 39.2672 22.1233 39.0444C22.1233 38.8216 22.0348 38.6079 21.8773 38.4504C21.7197 38.2929 21.5061 38.2044 21.2833 38.2044Z" fill="#008842"/>
<path d="M41.4981 38.2044H39.6109L40.5573 36.5636C40.6515 36.3732 40.6695 36.154 40.6077 35.9508C40.5458 35.7476 40.4088 35.5756 40.2246 35.4699C40.0403 35.3642 39.8227 35.3328 39.6161 35.382C39.4095 35.4312 39.2294 35.5574 39.1125 35.7348L38.1717 37.37L37.2253 35.7348C37.1749 35.6327 37.104 35.542 37.0171 35.4683C36.9303 35.3947 36.8292 35.3395 36.7203 35.3064C36.6113 35.2732 36.4967 35.2627 36.3835 35.2756C36.2704 35.2884 36.161 35.3242 36.0622 35.3809C35.9634 35.4376 35.8773 35.5139 35.8091 35.6051C35.7409 35.6963 35.6921 35.8005 35.6657 35.9113C35.6393 36.0221 35.6359 36.1372 35.6556 36.2493C35.6754 36.3615 35.7179 36.4685 35.7805 36.5636L36.7269 38.2044H34.8341C34.6114 38.2044 34.3977 38.2929 34.2402 38.4504C34.0826 38.6079 33.9941 38.8216 33.9941 39.0444C33.9941 39.2672 34.0826 39.4808 34.2402 39.6384C34.3977 39.7959 34.6114 39.8844 34.8341 39.8844H36.7269L35.7805 41.5252C35.7179 41.6203 35.6754 41.7272 35.6556 41.8394C35.6359 41.9516 35.6393 42.0666 35.6657 42.1774C35.6921 42.2882 35.7409 42.3924 35.8091 42.4837C35.8773 42.5749 35.9634 42.6512 36.0622 42.7079C36.161 42.7646 36.2704 42.8004 36.3835 42.8132C36.4967 42.826 36.6113 42.8155 36.7203 42.7824C36.8292 42.7492 36.9303 42.6941 37.0171 42.6204C37.104 42.5468 37.1749 42.4561 37.2253 42.354L38.1717 40.7188L39.1125 42.354C39.163 42.4561 39.2339 42.5468 39.3207 42.6204C39.4076 42.6941 39.5086 42.7492 39.6176 42.7824C39.7266 42.8155 39.8412 42.826 39.9543 42.8132C40.0675 42.8004 40.1769 42.7646 40.2757 42.7079C40.3745 42.6512 40.4606 42.5749 40.5288 42.4837C40.597 42.3924 40.6458 42.2882 40.6722 42.1774C40.6986 42.0666 40.702 41.9516 40.6822 41.8394C40.6625 41.7272 40.62 41.6203 40.5573 41.5252L39.6109 39.8844H41.4981C41.7209 39.8844 41.9346 39.7959 42.0921 39.6384C42.2496 39.4808 42.3381 39.2672 42.3381 39.0444C42.3381 38.8216 42.2496 38.6079 42.0921 38.4504C41.9346 38.2929 41.7209 38.2044 41.4981 38.2044Z" fill="#008842"/>
</svg>
