<svg width="57" height="57" viewBox="0 0 57 57" fill="none" xmlns="http://www.w3.org/2000/svg">
<rect width="56" height="56" transform="translate(0.0585938 0.594727)" fill="#F6F6F6"/>
<path fill-rule="evenodd" clip-rule="evenodd" d="M39.8693 14.2979C39.4365 14.297 39.0042 14.327 38.5757 14.3875C37.3672 12.7316 35.7848 11.3846 33.9573 10.4559C32.1297 9.52724 30.1088 9.04321 28.0589 9.04321C26.0089 9.04321 23.988 9.52724 22.1605 10.4559C20.333 11.3846 18.7506 12.7316 17.5421 14.3875C17.1136 14.3266 16.6813 14.2966 16.2485 14.2979C15.023 14.2676 13.8038 14.4828 12.6627 14.9309C11.5216 15.379 10.4818 16.0508 9.6043 16.9069C8.72684 17.763 8.02952 18.786 7.55341 19.9156C7.07731 21.0453 6.83203 22.2588 6.83203 23.4847C6.83203 24.7105 7.07731 25.924 7.55341 27.0537C8.02952 28.1833 8.72684 29.2063 9.6043 30.0624C10.4818 30.9185 11.5216 31.5903 12.6627 32.0384C13.8038 32.4865 15.023 32.7017 16.2485 32.6715C17.361 32.6718 18.464 32.4668 19.5021 32.0667C21.8663 34.1487 24.9085 35.2973 28.0589 35.2973C31.2092 35.2973 34.2514 34.1487 36.6157 32.0667C37.6539 32.4663 38.7568 32.6713 39.8693 32.6715C41.0948 32.7017 42.314 32.4865 43.455 32.0384C44.5961 31.5903 45.636 30.9185 46.5134 30.0624C47.3909 29.2063 48.0882 28.1833 48.5643 27.0537C49.0404 25.924 49.2857 24.7105 49.2857 23.4847C49.2857 22.2588 49.0404 21.0453 48.5643 19.9156C48.0882 18.786 47.3909 17.763 46.5134 16.9069C45.636 16.0508 44.5961 15.379 43.455 14.9309C42.314 14.4828 41.0948 14.2676 39.8693 14.2979ZM39.8693 30.045C38.5212 30.0436 37.2067 29.625 36.1061 28.8467C35.1336 30.0418 33.907 31.0052 32.5155 31.6669C31.1239 32.3286 29.6025 32.6719 28.0617 32.6719C26.5208 32.6719 24.9994 32.3286 23.6079 31.6669C22.2164 31.0052 20.9898 30.0418 20.0173 28.8467C19.1738 29.4376 18.2031 29.8217 17.1836 29.9676C16.1641 30.1136 15.1246 30.0174 14.1492 29.6868C13.1738 29.3562 12.29 28.8006 11.5694 28.0648C10.8488 27.3291 10.3115 26.434 10.0013 25.4519C9.69098 24.4699 9.61636 23.4286 9.78344 22.4124C9.95052 21.3961 10.3546 20.4336 10.963 19.6026C11.5713 18.7716 12.3669 18.0956 13.2851 17.6293C14.2034 17.163 15.2186 16.9195 16.2485 16.9187C17.1054 16.9217 17.9536 17.0909 18.7461 17.4171C19.6133 15.6905 20.9435 14.2389 22.588 13.2247C24.2326 12.2104 26.1267 11.6732 28.0589 11.6732C29.991 11.6732 31.8852 12.2104 33.5297 13.2247C35.1742 14.2389 36.5044 15.6905 37.3717 17.4171C38.1643 17.0915 39.0124 16.9222 39.8693 16.9187C41.6099 16.9187 43.2793 17.6101 44.5101 18.841C45.741 20.0718 46.4325 21.7412 46.4325 23.4819C46.4325 25.2225 45.741 26.8919 44.5101 28.1227C43.2793 29.3536 41.6099 30.045 39.8693 30.045Z" fill="#008842"/>
<path d="M10.9948 41.2004C10.9948 41.4618 10.8909 41.7125 10.7061 41.8974C10.5213 42.0822 10.2706 42.186 10.0092 42.186C9.87907 42.1875 9.74997 42.1631 9.62941 42.1142C9.50884 42.0652 9.39923 41.9928 9.30697 41.901C9.2147 41.8093 9.14163 41.7001 9.09201 41.5798C9.04239 41.4595 9.01723 41.3305 9.01798 41.2004V34.6428C9.0142 34.5109 9.03713 34.3795 9.08538 34.2566C9.13364 34.1337 9.20624 34.0218 9.29882 33.9276C9.39139 33.8335 9.50203 33.759 9.6241 33.7087C9.74618 33.6584 9.87716 33.6333 10.0092 33.6348C10.1388 33.6341 10.2673 33.6591 10.3872 33.7083C10.5071 33.7576 10.6161 33.8302 10.7078 33.9219C10.7994 34.0135 10.872 34.1225 10.9213 34.2424C10.9705 34.3623 10.9955 34.4908 10.9948 34.6204V41.2004Z" fill="#008842"/>
<path d="M47.659 41.2004C47.659 41.4618 47.5551 41.7125 47.3703 41.8973C47.1854 42.0821 46.9348 42.186 46.6734 42.186C46.412 42.186 46.1613 42.0821 45.9764 41.8973C45.7916 41.7125 45.6878 41.4618 45.6878 41.2004V34.6428C45.6848 34.511 45.7082 34.38 45.7568 34.2574C45.8053 34.1349 45.8779 34.0233 45.9703 33.9293C46.0628 33.8353 46.1731 33.7608 46.2948 33.7103C46.4165 33.6597 46.5471 33.634 46.679 33.6348C46.8098 33.6355 46.9392 33.6623 47.0596 33.7135C47.1801 33.7648 47.2891 33.8395 47.3803 33.9333C47.4715 34.0272 47.5431 34.1382 47.591 34.26C47.6388 34.3818 47.6619 34.5119 47.659 34.6428V41.2004Z" fill="#008842"/>
<path d="M17.1099 43.8267C17.1129 43.958 17.0896 44.0885 17.0414 44.2107C16.9932 44.3329 16.9211 44.4442 16.8292 44.5381C16.7374 44.632 16.6278 44.7066 16.5067 44.7576C16.3856 44.8085 16.2556 44.8347 16.1243 44.8347C15.8629 44.8347 15.6122 44.7308 15.4273 44.546C15.2425 44.3612 15.1387 44.1105 15.1387 43.8491V37.2635C15.1387 37.1343 15.1642 37.0064 15.2138 36.8871C15.2634 36.7679 15.3361 36.6596 15.4277 36.5685C15.5193 36.4774 15.628 36.4054 15.7475 36.3564C15.8671 36.3075 15.9951 36.2827 16.1243 36.2835C16.2534 36.2827 16.3815 36.3075 16.501 36.3564C16.6206 36.4054 16.7293 36.4774 16.8209 36.5685C16.9125 36.6596 16.9851 36.7679 17.0347 36.8871C17.0843 37.0064 17.1099 37.1343 17.1099 37.2635V43.8267Z" fill="#008842"/>
<path d="M41.5552 43.8267C41.5582 43.958 41.5349 44.0885 41.4867 44.2107C41.4385 44.3329 41.3664 44.4442 41.2746 44.5381C41.1827 44.632 41.0731 44.7066 40.952 44.7576C40.8309 44.8085 40.7009 44.8347 40.5696 44.8347C40.3082 44.8347 40.0575 44.7308 39.8727 44.546C39.6878 44.3612 39.584 44.1105 39.584 43.8491V37.2635C39.584 37.1343 39.6095 37.0064 39.6591 36.8871C39.7087 36.7679 39.7814 36.6596 39.873 36.5685C39.9646 36.4774 40.0733 36.4054 40.1928 36.3564C40.3124 36.3075 40.4404 36.2827 40.5696 36.2835C40.6987 36.2827 40.8268 36.3075 40.9463 36.3564C41.0659 36.4054 41.1746 36.4774 41.2662 36.5685C41.3578 36.6596 41.4305 36.7679 41.4801 36.8871C41.5297 37.0064 41.5552 37.1343 41.5552 37.2635V43.8267Z" fill="#008842"/>
<path d="M23.2192 45.4675C23.2192 45.7289 23.1154 45.9796 22.9306 46.1644C22.7457 46.3493 22.495 46.4531 22.2336 46.4531C21.9722 46.4531 21.7216 46.3493 21.5367 46.1644C21.3519 45.9796 21.248 45.7289 21.248 45.4675V38.9043C21.248 38.6429 21.3519 38.3922 21.5367 38.2074C21.7216 38.0225 21.9722 37.9187 22.2336 37.9187C22.495 37.9187 22.7457 38.0225 22.9306 38.2074C23.1154 38.3922 23.2192 38.6429 23.2192 38.9043V45.4675Z" fill="#008842"/>
<path d="M35.4402 45.4675C35.4409 45.5967 35.4161 45.7247 35.3672 45.8442C35.3183 45.9638 35.2462 46.0725 35.1552 46.1641C35.0641 46.2557 34.9558 46.3284 34.8365 46.378C34.7173 46.4276 34.5894 46.4531 34.4602 46.4531C34.1988 46.4531 33.9481 46.3493 33.7633 46.1644C33.5785 45.9796 33.4746 45.7289 33.4746 45.4675V38.9043C33.4746 38.6429 33.5785 38.3922 33.7633 38.2074C33.9481 38.0225 34.1988 37.9187 34.4602 37.9187C34.5894 37.9187 34.7173 37.9442 34.8365 37.9938C34.9558 38.0434 35.0641 38.1161 35.1552 38.2077C35.2462 38.2993 35.3183 38.408 35.3672 38.5276C35.4161 38.6471 35.4409 38.7751 35.4402 38.9043V45.4675Z" fill="#008842"/>
<path d="M29.3289 47.1587C29.3289 47.4191 29.2258 47.6689 29.0422 47.8536C28.8586 48.0383 28.6093 48.1428 28.3489 48.1443C28.0875 48.1443 27.8368 48.0404 27.652 47.8556C27.4671 47.6708 27.3633 47.4201 27.3633 47.1587V40.5955C27.3633 40.3341 27.4671 40.0834 27.652 39.8985C27.8368 39.7137 28.0875 39.6099 28.3489 39.6099C28.6093 39.6113 28.8586 39.7158 29.0422 39.9005C29.2258 40.0852 29.3289 40.335 29.3289 40.5955V47.1587Z" fill="#008842"/>
</svg>
