<svg width="48" height="51" viewBox="0 0 48 51" fill="none" xmlns="http://www.w3.org/2000/svg">
<g clip-path="url(#clip0_60_147)">
<path d="M38.1755 14.9496C38.1634 15.1908 37.985 15.1908 37.8427 15.2462C36.9964 15.5452 36.1428 15.8297 35.3086 16.1577C34.9734 16.2879 34.8263 16.1432 34.6479 15.9165C32.9094 13.6862 30.6597 12.2201 27.8965 11.6873C23.2742 10.7927 19.4235 12.1767 16.4118 15.7911C16.0839 16.1818 15.8428 16.2903 15.3654 16.0588C14.7337 15.7663 14.0818 15.5197 13.4147 15.321C12.9059 15.1594 12.7757 14.9665 13.1157 14.4843C14.7581 12.1026 17.053 10.2456 19.7249 9.13619C23.1464 7.66119 27.0002 7.53968 30.5078 8.79621C33.6641 9.89572 36.1477 11.9043 38.0164 14.6723C38.0743 14.7619 38.1274 14.8544 38.1755 14.9496V14.9496Z" fill="#F6D41D"/>
<path d="M33.7096 16.8448C33.7096 17.004 33.5866 17.004 33.4926 17.0353C32.9452 17.2282 32.3955 17.4115 31.8554 17.6237C31.6384 17.7081 31.5419 17.6237 31.4262 17.4693C30.3614 16.0453 28.8033 15.0702 27.0571 14.735C24.0768 14.1612 21.586 15.0581 19.6378 17.3874C19.428 17.6285 19.2713 17.7081 18.9626 17.5586C18.5546 17.3672 18.1331 17.206 17.7016 17.0763C17.3736 16.9702 17.2868 16.8352 17.5087 16.5338C18.5717 14.9996 20.0542 13.8041 21.7789 13.0906C23.8579 12.2079 26.1808 12.0828 28.3425 12.7371C30.5043 13.3915 32.3679 14.7837 33.6083 16.6712C33.6517 16.7291 33.6807 16.7966 33.7096 16.8448Z" fill="#F6D41D"/>
<path d="M25.5141 15.8176C26.4065 15.8095 27.2904 15.992 28.1067 16.3529C28.923 16.7138 29.6528 17.2449 30.2473 17.9106C30.4884 18.1517 30.5101 18.306 30.134 18.4724C28.5107 19.1907 26.9778 20.098 25.5671 21.1754C25.5315 21.2139 25.4879 21.2441 25.4393 21.264C25.3907 21.2838 25.3384 21.2928 25.286 21.2903C25.2336 21.2878 25.1824 21.2738 25.136 21.2494C25.0896 21.2249 25.0491 21.1906 25.0173 21.1489C23.8117 19.977 22.365 19.1934 20.8966 18.4676C20.6313 18.3374 20.5397 18.2265 20.7615 17.9853C21.7641 16.7994 23.1824 16.0419 24.7256 15.8683C25.0198 15.8321 25.3187 15.8297 25.5141 15.8176Z" fill="#F6D41D"/>
<path d="M16.7153 27.2179C17.0687 27.9164 17.513 28.565 18.0367 29.1469C18.1614 29.2578 18.2439 29.4084 18.2703 29.5732C18.2967 29.738 18.2652 29.9068 18.1813 30.0511C17.4875 31.4643 17.0166 32.9763 16.7852 34.5336C16.7033 35.0809 16.5104 35.0423 16.1583 34.7578C13.636 32.7487 11.8247 29.9835 10.9905 26.8685C10.1563 23.7536 10.3433 20.4532 11.524 17.4524C11.8784 16.5434 11.8784 16.5337 12.814 16.893C16.2331 18.2071 19.5798 19.6876 22.5022 21.9759C22.8302 22.2363 23.1123 22.557 23.4281 22.8343C23.7006 23.0754 23.4932 23.2056 23.3413 23.372C22.1357 24.6765 20.8674 25.911 19.8812 27.3939C19.8186 27.488 19.7486 27.5772 19.6883 27.6712C18.9409 28.7852 18.9385 28.79 17.933 27.8424C17.6268 27.5506 17.2458 27.3336 17.0312 26.9478C16.7635 26.2944 16.1511 25.9086 15.7894 25.3227C15.9763 26.007 16.2904 26.6499 16.7153 27.2179V27.2179Z" fill="#008842"/>
<path d="M16.7158 27.2179C16.2869 26.6492 15.9695 26.0046 15.7803 25.3179C16.142 25.9038 16.7448 26.2824 17.0221 26.943C16.8075 26.9093 16.7568 27.0564 16.7158 27.2179Z" fill="#008842"/>
<path d="M28.5641 29.453C26.7707 31.6223 24.5411 33.3902 22.0201 34.6419C21.0382 35.1338 20.0201 35.5497 18.9747 35.8861C18.4515 36.0525 18.3044 35.9006 18.4298 35.3436C19.1105 32.3076 20.547 29.4926 22.606 27.1599C26.3796 22.7835 31.1875 19.9262 36.4464 17.7561C37.083 17.4909 37.6906 17.1654 38.3368 16.9122C38.983 16.659 39.2362 16.8712 39.4508 17.4523C40.9313 21.4622 40.9192 25.4552 39.0674 29.3107C36.5887 34.4804 32.3883 37.3136 26.6834 37.9332C25.3843 38.0345 24.0776 37.9721 22.7941 37.7476C22.8254 37.4896 23.0521 37.2653 22.9219 36.9832C25.2608 35.4497 26.8715 33.2796 28.2555 30.9069L28.7956 29.9859C29.0681 29.5205 29.396 29.0792 29.4105 28.4017C29.0271 28.7489 28.7136 29.031 28.5641 29.453Z" fill="#008842"/>
<path d="M28.5645 29.4531C28.7139 29.0312 29.0274 28.7491 29.4108 28.4019C29.3963 29.0794 29.0684 29.5207 28.7959 29.986C28.7718 29.7883 28.8538 29.5375 28.5645 29.4531Z" fill="#008842"/>
<path d="M22.9224 36.9834C23.0526 37.2679 22.8259 37.4898 22.7946 37.7478C22.4802 37.7678 22.1682 37.683 21.9072 37.5066L22.9224 36.9834Z" fill="#008842"/>
<path d="M23.1009 47.301C11.0858 45.6397 2.1908 34.3841 3.48563 22.3207C4.52487 10.5057 15.2018 1.18154 27.0602 1.94349C35.9696 2.25936 44.1798 8.51407 46.9817 16.9365L46.7068 17.0329C43.3311 7.82929 33.9273 1.91214 24.1932 2.99961C10.2925 4.40053 1.42403 19.0656 6.79624 31.9729C9.55227 38.8014 16.1518 43.8529 23.4506 44.6704L23.1009 47.301V47.301Z" fill="#008842"/>
<path d="M22.1997 0.154318C20.753 0.588339 19.4148 0.940378 18.1007 1.39128C12.8538 3.19728 8.79335 6.57059 5.80344 11.1736C2.76531 15.8948 1.57899 21.1706 1.92379 26.7646C2.02983 29.162 2.58434 31.5183 3.5586 33.7113C5.24645 37.3547 7.98559 40.0312 11.5446 41.8516C15.0288 43.6432 18.6456 44.3159 22.4216 42.9439C23.5421 42.5349 24.5978 41.9664 25.5561 41.2561C28.1795 39.3006 31.1405 38.7074 34.2534 39.1848C36.8382 39.5827 38.9215 38.8665 40.8939 37.0678C40.9518 38.2083 40.2742 38.8521 39.7896 39.5513C38.7648 41.0198 37.3325 41.7817 35.541 41.9987C34.1827 42.1767 32.8387 42.4506 31.5191 42.8185C31.1285 42.9246 30.8464 43.4286 30.5136 43.7517C30.8464 44.0386 31.1333 44.4485 31.5215 44.5884C32.9044 45.0704 34.395 45.1539 35.8231 44.8295C39.886 44.0049 42.7674 41.4538 45.2437 38.3385C45.8514 37.5741 46.4349 36.7929 47.0305 36.0189L47.2378 36.1177C47.2004 36.3161 47.1529 36.5125 47.0956 36.7061C45.7019 40.7087 43.2183 43.8722 39.8137 46.3751C35.6495 49.4301 30.9428 50.5706 25.8527 50.5947C21.9633 50.6134 18.1249 49.7094 14.6526 47.9569C9.40906 45.4096 5.2168 41.115 2.79665 35.8115C0.144312 30.1403 -0.403035 24.2762 1.29929 18.2506C2.8066 12.7508 6.11846 7.91717 10.703 4.52587C14.045 2.00855 17.7968 0.569049 21.9128 0C21.9514 0 22.002 0.0458133 22.1997 0.154318Z" fill="#008842"/>
</g>
<defs>
<clipPath id="clip0_60_147">
<rect width="46.9199" height="50.5947" fill="white" transform="translate(0.319336)"/>
</clipPath>
</defs>
</svg>
