<svg width="18" height="15" viewBox="0 0 18 15" fill="none" xmlns="http://www.w3.org/2000/svg">
<path fill-rule="evenodd" clip-rule="evenodd" d="M13 0.844727C13.2029 0.844727 13.3972 0.926946 13.5384 1.07262L17.5384 5.19762C17.8268 5.49498 17.8195 5.9698 17.5221 6.25815C17.2247 6.5465 16.7499 6.5392 16.4616 6.24184L13.75 3.44552L13.75 13.5947C13.75 14.0089 13.4142 14.3447 13 14.3447C12.5858 14.3447 12.25 14.0089 12.25 13.5947L12.25 3.44552L9.53843 6.24184C9.25007 6.5392 8.77526 6.5465 8.47789 6.25815C8.18053 5.9698 8.17322 5.49498 8.46158 5.19762L12.4616 1.07262C12.6028 0.926946 12.7971 0.844727 13 0.844727ZM5 0.844727C5.41421 0.844727 5.75 1.18051 5.75 1.59473L5.75 11.7439L8.46157 8.94762C8.74993 8.65025 9.22475 8.64295 9.52211 8.9313C9.81947 9.21965 9.82678 9.69447 9.53843 9.99184L5.53843 14.1168C5.39717 14.2625 5.20291 14.3447 5 14.3447C4.79709 14.3447 4.60283 14.2625 4.46158 14.1168L0.461575 9.99184C0.173222 9.69447 0.180527 9.21965 0.477891 8.9313C0.775255 8.64295 1.25007 8.65025 1.53843 8.94762L4.25 11.7439L4.25 1.59473C4.25 1.18051 4.58579 0.844727 5 0.844727Z" fill="#101211"/>
</svg>
