<svg width="22" height="22" viewBox="0 0 22 22" fill="none" xmlns="http://www.w3.org/2000/svg">
<path fill-rule="evenodd" clip-rule="evenodd" d="M10.4121 1.68506C5.57962 1.68506 1.66211 5.60257 1.66211 10.4351C1.66211 15.2676 5.57962 19.1851 10.4121 19.1851C15.2446 19.1851 19.1621 15.2676 19.1621 10.4351C19.1621 5.60257 15.2446 1.68506 10.4121 1.68506ZM0.162109 10.4351C0.162109 4.77414 4.75119 0.185059 10.4121 0.185059C16.073 0.185059 20.6621 4.77414 20.6621 10.4351C20.6621 16.096 16.073 20.6851 10.4121 20.6851C4.75119 20.6851 0.162109 16.096 0.162109 10.4351ZM18.3818 18.4047C18.6747 18.1118 19.1495 18.1118 19.4424 18.4047L21.4424 20.4047C21.7353 20.6976 21.7353 21.1725 21.4424 21.4654C21.1495 21.7583 20.6747 21.7583 20.3818 21.4654L18.3818 19.4654C18.0889 19.1725 18.0889 18.6976 18.3818 18.4047Z" fill="#A7A7A7"/>
</svg>
